<?xml version="1.0" encoding="UTF-8"?>
<svg version="1.1" xmlns="http://www.w3.org/2000/svg" width="2000" height="2000">
<path d="M0 0 C233.31 0 466.62 0 707 0 C707 52.47 707 104.94 707 159 C675.98 159 644.96 159 613 159 C613 199.59 613 240.18 613 282 C583.3 282 553.6 282 523 282 C523 329.19 523 376.38 523 425 C497.59 425 472.18 425 446 425 C446 462.62 446 500.24 446 539 C417.29 539 388.58 539 359 539 C359 585.86 359 632.72 359 681 C326.99 681 294.98 681 262 681 C262 719.94 262 758.88 262 799 C323.71 799 385.42 799 449 799 C449 818.47 449 837.94 449 858 C433.1875 865.875 433.1875 865.875 428.33276367 868.28857422 C420.77435285 872.05578773 413.26165705 875.8944826 405.80078125 879.8515625 C393.99139327 886.10970098 382.01284368 892.02483142 370.04296875 897.96826172 C360.16589624 902.87572771 350.3040673 907.79642438 340.5625 912.96875 C328.45909223 919.39415062 316.16930867 925.44565027 303.89746094 931.54101562 C292.91694398 936.99833602 281.97256335 942.49952266 271.14233398 948.24987793 C260.21585587 954.03187786 249.114418 959.47092884 238.04296875 964.96826172 C227.1864772 970.36235628 216.36948653 975.80946298 205.65736389 981.48556519 C198.46482057 985.29528303 191.21642595 988.98352738 183.9375 992.625 C182.69202551 993.25384331 181.44658283 993.88274961 180.20117188 994.51171875 C178.44450195 995.39150391 178.44450195 995.39150391 176.65234375 996.2890625 C175.61070068 996.81193848 174.56905762 997.33481445 173.49584961 997.87353516 C171 999 171 999 169 999 C169 999.66 169 1000.32 169 1001 C169.76957031 1001.20238281 170.53914063 1001.40476562 171.33203125 1001.61328125 C176.47616001 1003.55807966 180.97880161 1006.36718586 185.6875 1009.1875 C194.5514602 1014.43173722 203.47905025 1019.53077215 212.5 1024.5 C222.1114439 1029.80291286 231.62670806 1035.24419181 241.09082031 1040.80517578 C248.09769916 1044.91349239 255.15507942 1048.92083875 262.25 1052.875 C274.80623213 1059.87287488 287.29291674 1066.98668595 299.75927734 1074.14306641 C302.82142167 1075.89767465 305.888457 1077.64338727 308.95703125 1079.38671875 C310.70064415 1080.38259663 312.44414237 1081.37867533 314.1875 1082.375 C315.37255127 1083.04438599 315.37255127 1083.04438599 316.58154297 1083.72729492 C321.88631291 1086.77262581 321.88631291 1086.77262581 323 1089 C302.87 1089 282.74 1089 262 1089 C262 1129.59 262 1170.18 262 1212 C232.3 1212 202.6 1212 172 1212 C172 1255.89 172 1299.78 172 1345 C140.98 1345 109.96 1345 78 1345 C78 1382.62 78 1420.24 78 1459 C50.61 1459 23.22 1459 -5 1459 C-5 1507.51 -5 1556.02 -5 1606 C-33.71 1606 -62.42 1606 -92 1606 C-92 1648.24 -92 1690.48 -92 1734 C-124.01 1734 -156.02 1734 -189 1734 C-189 1779.54 -189 1825.08 -189 1872 C-219.03 1872 -249.06 1872 -280 1872 C-280 1914.24 -280 1956.48 -280 2000 C-308.71 2000 -337.42 2000 -367 2000 C-367 1957.76 -367 1915.52 -367 1872 C-338.62 1872 -310.24 1872 -281 1872 C-281 1737.03 -281 1602.06 -281 1463 C-247.67 1463 -214.34 1463 -180 1463 C-180 1429.01 -180 1395.02 -180 1360 C-274.71 1360 -369.42 1360 -467 1360 C-467 1303.24 -467 1246.48 -467 1188 C-430.7 1188 -394.4 1188 -357 1188 C-357 1142.46 -357 1096.92 -357 1050 C-331.92 1050 -306.84 1050 -281 1050 C-281 1007.76 -281 965.52 -281 922 C-250.97 922 -220.94 922 -190 922 C-190 886.36 -190 850.72 -190 814 C-249.4 814 -308.8 814 -370 814 C-370 719.62 -370 625.24 -370 528 C-340.63 528 -311.26 528 -281 528 C-281 482.46 -281 436.92 -281 390 C-252.95 390 -224.9 390 -196 390 C-196 344.79 -196 299.58 -196 253 C-165.31 253 -134.62 253 -103 253 C-103 217.03 -103 181.06 -103 144 C-69.01 144 -35.02 144 0 144 C0 96.48 0 48.96 0 0 Z " fill="#FFF200" transform="translate(881,0)"/>
<path d="M0 0 C3.36139143 1.34455657 6.31595133 2.62317176 9.45703125 4.328125 C10.73574097 5.02204346 10.73574097 5.02204346 12.0402832 5.72998047 C13.41253052 6.48239014 13.41253052 6.48239014 14.8125 7.25 C15.77953857 7.77867676 16.74657715 8.30735352 17.74291992 8.85205078 C25.85443725 13.31420005 33.85146241 17.95910193 41.83227539 22.64990234 C49.94797886 27.41175672 58.13851083 32.02716458 66.3581543 36.60668945 C74.30974015 41.0413581 82.22477861 45.5372588 90.125 50.0625 C98.56987109 54.89904514 107.02301561 59.71988549 115.5 64.5 C124.6197283 69.64337287 133.71387965 74.83057738 142.80126953 80.03076172 C150.68804766 84.54331077 158.58546726 89.03624806 166.5 93.5 C175.61968466 98.64345084 184.71387919 103.83057711 193.80126953 109.03076172 C201.68804766 113.54331077 209.58546726 118.03624806 217.5 122.5 C226.61968466 127.64345084 235.71387919 132.83057711 244.80126953 138.03076172 C252.68804766 142.54331077 260.58546726 147.03624806 268.5 151.5 C277.61968466 156.64345084 286.71387919 161.83057711 295.80126953 167.03076172 C303.68804816 171.54331106 311.58552059 176.03615295 319.5 180.5 C327.910759 185.24481396 336.30431068 190.01917995 344.6875 194.8125 C345.2728653 195.14715271 345.85823059 195.48180542 346.46133423 195.82659912 C352.42563159 199.23667004 358.38845512 202.64930669 364.34959412 206.06489563 C367.29510888 207.75239031 370.24117253 209.43892475 373.1875 211.125 C373.76805145 211.45728607 374.34860291 211.78957214 374.94674683 212.13192749 C383.18693278 216.84615506 391.45747023 221.50347668 399.75 226.125 C408.84933297 231.19625465 417.85966632 236.40297153 426.84082031 241.68017578 C434.33300958 246.06629441 441.8990924 250.30553732 449.5 254.5 C459.09141253 259.79289711 468.59235753 265.21479828 478.03149414 270.77441406 C483.32698703 273.88497888 488.64856435 276.93958274 494.01953125 279.91796875 C494.89070587 280.40167686 494.89070587 280.40167686 495.77947998 280.89515686 C498.59684712 282.4578018 501.41807958 284.01285354 504.24462891 285.55883789 C505.74582275 286.38822876 505.74582275 286.38822876 507.27734375 287.234375 C508.16671631 287.72131836 509.05608887 288.20826172 509.97241211 288.70996094 C512 290 512 290 513 292 C512.26586914 293.75805664 512.26586914 293.75805664 511.03515625 295.91015625 C510.57326904 296.72218506 510.11138184 297.53421387 509.63549805 298.37084961 C509.11640869 299.25909424 508.59731934 300.14733887 508.0625 301.0625 C507.52471924 301.9913501 506.98693848 302.9202002 506.43286133 303.87719727 C495.16504341 323.13617146 482.7312371 341.68515666 470 360 C469.54995605 360.64936523 469.09991211 361.29873047 468.63623047 361.96777344 C460.79156551 373.24894181 452.38669384 384.11949423 444 395 C443.19997559 396.03833984 443.19997559 396.03833984 442.38378906 397.09765625 C436.63866665 404.53386785 430.71320781 411.78485983 424.60546875 418.92578125 C422.24135813 421.69699155 419.96156042 424.52927189 417.6875 427.375 C412.81810773 433.36742328 407.52591947 438.93806496 402.23046875 444.55078125 C399.82082121 447.10909599 397.4737788 449.70501007 395.1875 452.375 C392.03549134 456.04308061 388.61314893 459.40179267 385.171875 462.796875 C383.27233365 464.72374788 381.49977056 466.68838914 379.75 468.75 C372.80240684 476.83123307 365.07949175 484.37045227 356.95703125 491.26171875 C354.53547011 493.41260639 352.27625205 495.69611515 350 498 C346.46686601 501.57083512 342.86626905 504.96551225 339.05078125 508.23046875 C336.72433417 510.23786023 334.45807314 512.30466638 332.1875 514.375 C327.86739209 518.27363397 323.41928619 521.97503858 318.89453125 525.6328125 C316.38658434 527.683846 313.91920235 529.77410567 311.46313477 531.88671875 C303.93202173 538.35155122 296.09460805 544.36672476 288.17626953 550.34716797 C286.05365696 551.95924864 283.94467286 553.5874463 281.83984375 555.22265625 C244.99696958 583.79760712 205.14523507 608.53568114 164.0078125 630.39990234 C162.01842692 631.45821672 160.0313987 632.52097553 158.046875 633.58837891 C85.09807129 672.80077323 4.63682138 699.8374986 -194 730 C-195.10601563 730.07202637 -196.21203125 730.14405273 -197.3515625 730.21826172 C-283.30623927 735.56207985 -370.65622026 726.08904383 -538 680 C-538 672.74 -538 665.48 -538 658 C-505.99 658 -473.98 658 -441 658 C-441 615.76 -441 573.52 -441 530 C-412.29 530 -383.58 530 -354 530 C-354 481.49 -354 432.98 -354 383 C-326.28 383 -298.56 383 -270 383 C-270 345.38 -270 307.76 -270 269 C-239.31 269 -208.62 269 -177 269 C-177 225.11 -177 181.22 -177 136 C-147.3 136 -117.6 136 -87 136 C-87 95.08 -87 54.16 -87 12 C-58.29 12 -29.58 12 0 12 C0 8.04 0 4.08 0 0 Z " fill="#8DC63F" transform="translate(1291,1138)"/>
<path d="M0 0 C0 28.71 0 57.42 0 87 C-27.72 87 -55.44 87 -84 87 C-84 132.54 -84 178.08 -84 225 C-113.7 225 -143.4 225 -174 225 C-174 359.64 -174 494.28 -174 633 C-144.3 633 -114.6 633 -84 633 C-84 670.62 -84 708.24 -84 747 C-109.41 747 -134.82 747 -161 747 C-161 792.21 -161 837.42 -161 884 C-196.97 884 -232.94 884 -270 884 C-270 981.35 -270 1078.7 -270 1179 C-208.62 1179 -147.24 1179 -84 1179 C-84 1272.39 -84 1365.78 -84 1462 C-86.99219253 1460.50390374 -89.33074944 1459.14370765 -91.984375 1457.19921875 C-92.74661377 1456.64081299 -93.50885254 1456.08240723 -94.29418945 1455.50708008 C-95.50981567 1454.60638794 -95.50981567 1454.60638794 -96.75 1453.6875 C-97.59328857 1453.06447998 -98.43657715 1452.44145996 -99.30541992 1451.79956055 C-106.09907073 1446.74439968 -112.69042068 1441.47614514 -119.22265625 1436.08984375 C-122.26719202 1433.58280877 -125.3610217 1431.14995556 -128.48266602 1428.73999023 C-134.71046891 1423.9299825 -140.58285571 1418.86760629 -146.328125 1413.4921875 C-148.56115258 1411.40933429 -150.81931447 1409.37633504 -153.125 1407.375 C-157.80387353 1403.30849437 -162.41620741 1399.17339793 -167 1395 C-167.48694336 1394.55962402 -167.97388672 1394.11924805 -168.47558594 1393.66552734 C-177.9234662 1385.09686622 -186.9739095 1376.13278753 -196 1367.125 C-196.59021942 1366.53736877 -197.18043884 1365.94973755 -197.7885437 1365.34429932 C-203.53159865 1359.62110479 -209.23727108 1353.91806225 -214.50097656 1347.74414062 C-217.02917785 1344.80253313 -219.71401893 1342.00848192 -222.375 1339.1875 C-227.00596215 1334.23905028 -231.40498195 1329.18127256 -235.640625 1323.88671875 C-237.90161974 1321.12036923 -240.23166579 1318.43603815 -242.59350586 1315.75634766 C-248.96036088 1308.52525189 -254.90181305 1301.05911089 -260.6953125 1293.36328125 C-262.88428618 1290.45655805 -265.10634146 1287.58163957 -267.3671875 1284.73046875 C-276.7814849 1272.84825467 -285.47792668 1260.53482911 -294 1248 C-294.55461914 1247.18466797 -295.10923828 1246.36933594 -295.68066406 1245.52929688 C-312.86325001 1220.18631252 -328.59500163 1194.01712042 -343 1167 C-343.48291504 1166.09733398 -343.96583008 1165.19466797 -344.46337891 1164.26464844 C-364.62922168 1126.46463463 -381.95261466 1087.48295677 -396 1047 C-396.2384967 1046.31631348 -396.47699341 1045.63262695 -396.72271729 1044.92822266 C-423.14738463 969.14819459 -439.22236644 889.7976243 -357.88330078 377.59814453 C-349.20089169 359.71230553 -340.05688427 342.15697514 -330 325 C-328.93335657 323.16029374 -327.86695286 321.32044848 -326.80078125 319.48046875 C-315.3335541 299.79044291 -303.02590568 280.69164514 -290 262 C-289.49758789 261.27474121 -288.99517578 260.54948242 -288.47753906 259.80224609 C-280.96065445 248.95729383 -273.10448347 238.41209788 -265 228 C-264.50580566 227.36400879 -264.01161133 226.72801758 -263.50244141 226.07275391 C-254.63777284 214.6795825 -245.51729289 203.52603627 -236.08984375 192.59375 C-234.08853441 190.27215595 -232.1016574 187.93965113 -230.12890625 185.59375 C-216.77936513 169.75881841 -202.22503588 155.05820206 -187.56982422 140.43945312 C-184.97114686 137.84620716 -182.37795419 135.24756052 -179.78515625 132.6484375 C-178.10709188 130.97103293 -176.42871787 129.29393806 -174.75 127.6171875 C-173.98840576 126.85356903 -173.22681152 126.08995056 -172.44213867 125.30319214 C-168.33187908 121.21071579 -164.13798577 117.27839958 -159.73725891 113.49914551 C-157.1578432 111.27327149 -154.68055 108.94719762 -152.1875 106.625 C-147.53961458 102.3312462 -142.75583652 98.2646816 -137.82421875 94.296875 C-135.33759861 92.27456153 -132.89692001 90.20809063 -130.4675293 88.11767578 C-122.9404048 81.65332633 -115.10486519 75.64032076 -107.18945312 69.66162109 C-105.02856712 68.02168017 -102.8796628 66.36731034 -100.734375 64.70703125 C-72.41386132 42.80814339 -42.32385509 23.05440788 -11.3125 5.1875 C-9.95632568 4.40366943 -9.95632568 4.40366943 -8.57275391 3.60400391 C-7.74050293 3.1301123 -6.90825195 2.6562207 -6.05078125 2.16796875 C-5.31512939 1.74797607 -4.57947754 1.3279834 -3.8215332 0.89526367 C-2 0 -2 0 0 0 Z " fill="#8DC63F" transform="translate(623,242)"/>
<path d="M0 0 C3.73632047 1.86816024 7.00286076 4.00901623 10.375 6.4375 C10.98641846 6.87634521 11.59783691 7.31519043 12.2277832 7.76733398 C26.80177641 18.3115314 40.60740471 29.8921536 54.29541016 41.54980469 C56.02119329 43.01803039 57.75074272 44.48173533 59.48046875 45.9453125 C66.94333946 52.27848259 74.21264213 58.782409 81.35791016 65.47119141 C82.96190161 66.96452987 84.57844451 68.44288208 86.19921875 69.91796875 C95.03306794 78.00079312 103.52629873 86.41845312 112 94.875 C112.59049133 95.46290314 113.18098267 96.05080627 113.78936768 96.65652466 C119.53214785 102.37944433 125.23752319 108.08223345 130.50097656 114.25585938 C133.02917785 117.19746687 135.71401893 119.99151808 138.375 122.8125 C143.00272311 127.75748862 147.39827818 132.81227238 151.6328125 138.1015625 C154.46988187 141.5753339 157.4190593 144.93998768 160.375 148.3125 C166.51299807 155.35098546 172.31500559 162.59329464 178 170 C178.91120605 171.18021729 178.91120605 171.18021729 179.84082031 172.38427734 C207.3816126 208.07045935 231.83101837 245.76159243 254 285 C254.96292969 286.69793701 254.96292969 286.69793701 255.9453125 288.43017578 C257.8123731 291.73674389 259.65968984 295.05348311 261.5 298.375 C262.35561523 299.89057495 262.35561523 299.89057495 263.22851562 301.43676758 C263.74091797 302.37286865 264.25332031 303.30896973 264.78125 304.2734375 C265.23564453 305.09247559 265.69003906 305.91151367 266.15820312 306.75537109 C267 309 267 309 266.86254883 311.15527344 C265.74807255 313.53879531 264.75772289 314.06327824 262.41796875 315.2421875 C261.61004883 315.65742676 260.80212891 316.07266602 259.96972656 316.50048828 C259.0515918 316.95407715 258.13345703 317.40766602 257.1875 317.875 C256.21135742 318.37112793 255.23521484 318.86725586 254.22949219 319.37841797 C251.22832738 320.89767429 248.22029917 322.4017957 245.2086792 323.90014648 C242.7719773 325.11354821 240.33725233 326.33085547 237.90283203 327.54882812 C237.00015091 328.00043304 236.09746979 328.45203796 235.16743469 328.91732788 C234.23690781 329.38289093 233.30638092 329.84845398 232.34765625 330.328125 C226.61939582 333.19394594 220.88984968 336.05701346 215.15307617 338.90576172 C206.55832925 343.17889125 197.99487483 347.49359985 189.515625 351.9921875 C178.17961807 358.00632858 166.68224485 363.69054259 155.18847656 369.39550781 C145.5957938 374.16012957 136.02383832 378.9473777 126.5625 383.96875 C114.8347654 390.1920455 102.93359714 396.06417989 91.04296875 401.96826172 C80.34118496 407.28548906 69.6809156 412.65626019 59.12524414 418.25842285 C48.58088103 423.83686304 37.87295284 429.09223703 27.18847656 434.39550781 C17.5957938 439.16012957 8.02383832 443.9473777 -1.4375 448.96875 C-13.1652346 455.1920455 -25.06640286 461.06417989 -36.95703125 466.96826172 C-46.85495253 471.88608652 -56.73724842 476.81792981 -66.5 482 C-78.20641534 488.21376724 -90.08727366 494.07454291 -101.95703125 499.96826172 C-113.64928468 505.77760816 -125.27944539 511.67690416 -136.81591797 517.79003906 C-142.19592896 520.63927174 -147.6181962 523.40085676 -153.0625 526.125 C-154.00931641 526.60453125 -154.95613281 527.0840625 -155.93164062 527.578125 C-156.83205078 528.02929688 -157.73246094 528.48046875 -158.66015625 528.9453125 C-159.84557007 529.54110107 -159.84557007 529.54110107 -161.05493164 530.14892578 C-163 531 -163 531 -165 531 C-165 501.63 -165 472.26 -165 442 C-194.7 442 -224.4 442 -255 442 C-255 396.79 -255 351.58 -255 305 C-226.29 305 -197.58 305 -168 305 C-168 267.38 -168 229.76 -168 191 C-142.59 191 -117.18 191 -91 191 C-91 144.14 -91 97.28 -91 49 C-60.97 49 -30.94 49 0 49 C0 32.83 0 16.66 0 0 Z " fill="#8DC63F" transform="translate(1556,295)"/>
</svg>
